<?xml version="1.0" encoding="utf-8"?>
<!-- Generator: Adobe Illustrator 28.2.0, SVG Export Plug-In . SVG Version: 6.00 Build 0)  -->
<svg version="1.1" id="Layer_1" xmlns="http://www.w3.org/2000/svg" xmlns:xlink="http://www.w3.org/1999/xlink" x="0px" y="0px"
	 viewBox="0 0 1024 768" style="enable-background:new 0 0 1024 768;" xml:space="preserve">
<style type="text/css">
	.st0{fill:#FFFFFF;}
</style>
<g>
	<path class="st0" d="M475.6,285.04c5.93,5.14,14.06,14.46,36.4,14.46c22.34,0,30.47-9.33,36.4-14.46
		c3.79-3.28,7.06-6.12,12.38-6.12h132.04C656.57,216.74,589.17,174.94,512,174.94s-144.57,41.8-180.83,103.98h132.04
		C468.53,278.93,471.81,281.76,475.6,285.04"/>
	<path class="st0" d="M438.3,413.59c-16.6-14.52-31.34-25.69-44.01-34.26c-26.28-17.78-57.3-27.23-89.03-27.23
		c-1.6,10.44-2.44,21.13-2.44,32.02c0,112.2,88.34,203.76,199.27,208.93v-98.39c0-13.22-5.28-25.9-14.68-35.2
		C475.13,447.32,457.5,430.39,438.3,413.59"/>
	<path class="st0" d="M682.74,332.28c19.72-2.74,31.95,0,31.95,0c-1.18-4.64-2.53-9.21-4.01-13.72h-46.03
		c-35.6,0-70.46,10.93-99.25,31.86c-3.16,2.3-6.08,4.61-8.62,6.88c-17.69,15.83-31.67,30.63-44.79,30.63
		c-13.12,0-27.1-14.79-44.79-30.63c-2.54-2.27-5.45-4.58-8.62-6.88c-28.79-20.93-63.65-31.86-99.25-31.86h-46.03
		c-1.49,4.51-2.83,9.08-4.01,13.72c0,0,16.34-2.66,31.95,0c15.61,2.66,59.07,21.75,110.19,66.48c25.08,21.95,47.52,44.1,59.21,55.93
		c0.74,0.75,1.94,0.75,2.68,0c11.69-11.82,34.13-33.98,59.21-55.93C623.68,354.03,663.02,335.02,682.74,332.28"/>
	<path class="st0" d="M402.24,304.84c21.25,1.91,52,22.44,74.12,42.24c13.65,12.21,27.76,28.65,35.64,28.65
		c7.88,0,21.99-16.44,35.64-28.65c22.12-19.8,51.69-39.57,74.12-42.24c22.44-2.67,83.85,0,83.85,0c-0.95-2.3-1.92-4.6-2.94-6.86
		H601.5c-13.57,0-26.97,3.38-38.75,10.11c-0.89,0.51-1.75,1.02-2.56,1.54c-13.91,8.83-29.68,18.85-48.19,18.85
		c-18.51,0-34.28-10.01-48.19-18.85c-0.79-0.5-1.61-1-2.47-1.49c-11.83-6.77-25.3-10.15-38.93-10.15H321.33
		c-1.03,2.26-2,4.55-2.94,6.86C318.39,304.84,380.99,302.93,402.24,304.84"/>
	<path class="st0" d="M463.56,298.96c1.83,0.95,3.57,1.94,5.16,2.95c12.86,8.16,27.43,21.99,43.28,21.99
		c15.85,0,30.43-13.83,43.28-21.99c1.58-1.01,3.33-1.99,5.16-2.95c12.97-6.76,27.43-10.12,42.06-10.12h95.76
		c-0.92-1.8-1.87-3.57-2.84-5.34H560.78c-3.61,0-5.91,1.99-9.39,5c-6.48,5.61-15.35,13.29-39.4,13.29
		c-24.05,0-32.92-7.68-39.4-13.29c-3.48-3.01-5.77-5-9.38-5H328.58c-0.97,1.76-1.92,3.54-2.84,5.34h95.77
		C436.13,288.84,450.59,292.2,463.56,298.96"/>
	<path class="st0" d="M718.74,352.1c-31.74,0-62.76,9.46-89.04,27.24c-12.69,8.58-27.45,19.77-44.09,34.33
		c-19.17,16.78-36.76,33.66-49.01,45.78c-9.4,9.3-14.68,21.98-14.68,35.2v98.39c110.92-5.18,199.27-96.73,199.27-208.94
		C721.17,373.23,720.34,362.54,718.74,352.1"/>
</g>
</svg>
