<svg width="37" height="48" viewBox="0 0 37 48" fill="none" xmlns="http://www.w3.org/2000/svg">
<path fill-rule="evenodd" clip-rule="evenodd" d="M17.4909 31.5936C22.1253 30.2715 31.9196 29.2255 35.9328 29.6965C36.4813 29.7589 36.4928 29.8497 35.9711 30.0331C32.1489 31.3969 22.2744 32.5752 17.489 32.3067L17.489 32.318C17.4871 33.0783 17.4852 33.8349 17.4852 34.5896C22.1024 33.6042 31.7954 33.2694 35.6959 34.0298C36.2291 34.1319 36.2329 34.2227 35.7112 34.3683C31.8794 35.4484 22.1578 35.908 17.4852 35.297C17.4862 35.6912 17.4866 36.0839 17.4871 36.4754C17.4876 36.8693 17.4881 37.262 17.489 37.6538C21.9724 36.9785 31.2775 37.2944 34.9601 38.3158C35.4627 38.4539 35.4608 38.5465 34.9505 38.6562C31.222 39.4734 21.938 39.2842 17.4909 38.3687L17.4967 40.6971C21.4086 40.2923 29.4581 41.1832 32.5655 42.4335C32.9898 42.5999 32.9783 42.6926 32.5311 42.7701C29.2498 43.3546 21.271 42.5961 17.4967 41.4121C17.5005 43.6629 17.4986 45.8646 17.4756 48H16.9597C14.674 31.2115 16.0003 9.90059 19.2453 0.191792C19.3198 -0.0994907 19.6141 -0.0257244 19.5415 0.191792C19.123 2.77173 18.7886 5.37057 18.521 7.97699C19.2969 4.74639 21.6456 1.42691 23.1554 0.394177C23.4038 0.222055 23.486 0.269341 23.4573 0.56819C23.2395 2.92871 20.3805 7.77271 18.4083 9.13455C18.3012 10.2619 18.2057 11.391 18.1216 12.5183C19.7632 9.48636 24.9441 4.19788 27.7133 2.80955C28.0802 2.6223 28.1548 2.69039 27.9808 3.06301C26.6374 5.99664 21.0761 11.7466 18.1713 13.2031C18.135 13.222 18.1006 13.2371 18.07 13.2503C18.0012 14.2396 17.9381 15.2269 17.8846 16.2123C20.5506 13.116 27.484 7.9732 30.8131 6.70404C31.2603 6.53003 31.3195 6.60758 31.0309 6.98776C28.8103 9.9422 21.4392 15.5012 17.8445 16.9576C17.8005 17.8333 17.7604 18.7053 17.726 19.5772C21.0991 16.7174 29.1944 12.176 32.8617 11.1603C33.3567 11.0203 33.4045 11.1017 33.0337 11.4554C30.2187 14.1582 21.7737 18.9966 17.6973 20.2827C17.6706 21.045 17.6457 21.8054 17.6247 22.5657C21.6055 20.0898 30.3792 16.5623 34.2358 15.9683C34.7652 15.8851 34.8015 15.9702 34.3677 16.2823C31.1456 18.6164 22.0909 22.386 17.6037 23.3204C17.5846 24.0562 17.5693 24.7901 17.5559 25.5202C21.9457 23.4831 31.3635 20.9145 35.3786 20.7386C35.9309 20.7121 35.9558 20.801 35.4723 21.0658C31.9062 23.0291 22.2897 25.7812 17.5425 26.2635C17.5311 27.0239 17.5215 27.7823 17.5139 28.5389C22.0603 26.8858 31.7877 25.1381 35.8392 25.3178C36.3915 25.3386 36.4087 25.4294 35.9023 25.6507C32.1585 27.2924 22.2992 29.1877 17.5062 29.252C17.4986 30.035 17.4948 30.8124 17.491 31.5879L17.4909 31.5936ZM16.076 10.8491C8.40683 11.1404 2.65449 17.2705 2.65449 25.5191C2.65449 33.5483 8.038 39.4591 15.2657 40.1892L15.4128 41.5037C6.70979 40.8455 0 34.3503 0 25.5191C0 16.3948 7.15317 9.68016 16.2977 9.53452L16.076 10.8491Z" fill="white"/>
</svg>
